# xmcd
#
# Track frame offsets:
# 150
# 16476
# 33836
# 55716
# 68974
# 85232
# 99680
# 117788
# 133824
# 157311
# 171049
# 190329
# 207777
# 221214
# 238817
#
# Disc length: 3369 seconds
#
#
# Revision: 0
# Processed by: cddbd v1.5.1PL0 Copyright (c) Steve Scherf et al.
# Submitted via: FreeRIP 2.90 
#
DISCID=da0d270f
DTITLE=Eddy Wilson and Frends - Blues for Christmas
DYEAR=2001
DGENRE=Blues
TTITLE0=Lonely this Christmas
TTITLE1=Driving home for Christmas
TTITLE2=Still got the blues for Christmas
TTITLE3=Please come home for Christmas
TTITLE4=Santa Clous got the blues
TTITLE5=How blue can you get at Christmas
TTITLE6=Thank God it's Christmas
TTITLE7=Merry X-mas everybody
TTITLE8=Wind of change
TTITLE9=Do they know it's Christmas
TTITLE10=Angel girl
TTITLE11=I'd rather go blind
TTITLE12=Magic Christmas (The Supernatural)
TTITLE13=Christmas crossroads
TTITLE14=I'm dreaming of a white Christmas
EXTD=
EXTT0=
EXTT1=
EXTT2=
EXTT3=
EXTT4=
EXTT5=
EXTT6=
EXTT7=
EXTT8=
EXTT9=
EXTT10=
EXTT11=
EXTT12=
EXTT13=
EXTT14=
PLAYORDER=
